<svg height="18" width="18" viewBox="0 0 18 18" xmlns="http://www.w3.org/2000/svg">
  <g fill="#0ea5e9">
    <path d="M9 1C4.58172 1 1 4.58172 1 9C1 13.4183 4.58172 17 9 17C13.4183 17 17 13.4183 17 9C17 4.58172 13.4183 1 9 1Z" fill-opacity="0.4"/>
    <path d="M9 5.5C9.41421 5.5 9.75 5.83579 9.75 6.25V8.25H11.75C12.1642 8.25 12.5 8.58579 12.5 9C12.5 9.41421 12.1642 9.75 11.75 9.75H9.75V11.75C9.75 12.1642 9.41421 12.5 9 12.5C8.58579 12.5 8.25 12.1642 8.25 11.75V9.75H6.25C5.83579 9.75 5.5 9.41421 5.5 9C5.5 8.58579 5.83579 8.25 6.25 8.25H8.25V6.25C8.25 5.83579 8.58579 5.5 9 5.5Z"/>
  </g>
</svg>
