<svg width="650" height="350" viewBox="0 0 650 350" fill="none" xmlns="http://www.w3.org/2000/svg">
<rect width="650" height="350" fill="white"/>
<g filter="url(#filter0_i_1720_15)">
<path d="M186 204.819V84.3383L153.769 104.677V225.157L186 204.819Z" fill="url(#paint0_linear_1720_15)"/>
<path d="M121.537 204.819L153.769 225.157V104.677L121.537 84.3383V204.819Z" fill="url(#paint1_linear_1720_15)"/>
<path d="M186 84.3383L153.769 64L121.537 84.3383L153.769 104.677L186 84.3383Z" fill="url(#paint2_linear_1720_15)"/>
</g>
<g filter="url(#filter1_i_1720_15)">
<path d="M153.768 264.463L153.769 227.2L121.725 247.713V286.747L153.768 264.463Z" fill="url(#paint3_linear_1720_15)"/>
<path d="M66 253.675L121.725 286.747V247.713L66 215.312V253.675Z" fill="url(#paint4_linear_1720_15)"/>
<path d="M153.769 227.2L101.835 195.405L66 215.312L121.725 247.713L153.769 227.2Z" fill="url(#paint5_linear_1720_15)"/>
</g>
<path d="M215.773 187.364C214.091 187.364 212.64 186.992 211.42 186.25C210.208 185.5 209.273 184.455 208.614 183.114C207.962 181.765 207.636 180.197 207.636 178.409C207.636 176.621 207.962 175.045 208.614 173.682C209.273 172.311 210.189 171.242 211.364 170.477C212.545 169.705 213.924 169.318 215.5 169.318C216.409 169.318 217.307 169.47 218.193 169.773C219.08 170.076 219.886 170.568 220.614 171.25C221.341 171.924 221.92 172.818 222.352 173.932C222.784 175.045 223 176.417 223 178.045V179.182H209.545V176.864H220.273C220.273 175.879 220.076 175 219.682 174.227C219.295 173.455 218.742 172.845 218.023 172.398C217.311 171.951 216.47 171.727 215.5 171.727C214.432 171.727 213.508 171.992 212.727 172.523C211.955 173.045 211.36 173.727 210.943 174.568C210.527 175.409 210.318 176.311 210.318 177.273V178.818C210.318 180.136 210.545 181.254 211 182.17C211.462 183.08 212.102 183.773 212.92 184.25C213.739 184.72 214.689 184.955 215.773 184.955C216.477 184.955 217.114 184.856 217.682 184.659C218.258 184.455 218.754 184.152 219.17 183.75C219.587 183.341 219.909 182.833 220.136 182.227L222.727 182.955C222.455 183.833 221.996 184.606 221.352 185.273C220.708 185.932 219.913 186.447 218.966 186.818C218.019 187.182 216.955 187.364 215.773 187.364ZM227.08 187V169.545H229.67V172.273H229.898C230.261 171.341 230.848 170.617 231.659 170.102C232.47 169.58 233.443 169.318 234.58 169.318C235.731 169.318 236.689 169.58 237.455 170.102C238.227 170.617 238.83 171.341 239.261 172.273H239.443C239.89 171.371 240.561 170.655 241.455 170.125C242.348 169.587 243.42 169.318 244.67 169.318C246.231 169.318 247.508 169.807 248.5 170.784C249.492 171.754 249.989 173.265 249.989 175.318V187H247.307V175.318C247.307 174.03 246.955 173.11 246.25 172.557C245.545 172.004 244.716 171.727 243.761 171.727C242.534 171.727 241.583 172.098 240.909 172.841C240.235 173.576 239.898 174.508 239.898 175.636V187H237.17V175.045C237.17 174.053 236.848 173.254 236.205 172.648C235.561 172.034 234.731 171.727 233.716 171.727C233.019 171.727 232.367 171.913 231.761 172.284C231.163 172.655 230.678 173.17 230.307 173.83C229.943 174.481 229.761 175.235 229.761 176.091V187H227.08ZM260.028 187.409C258.922 187.409 257.919 187.201 257.017 186.784C256.116 186.36 255.4 185.75 254.869 184.955C254.339 184.152 254.074 183.182 254.074 182.045C254.074 181.045 254.271 180.235 254.665 179.614C255.059 178.985 255.585 178.492 256.244 178.136C256.903 177.78 257.631 177.515 258.426 177.341C259.229 177.159 260.036 177.015 260.847 176.909C261.907 176.773 262.767 176.67 263.426 176.602C264.093 176.527 264.578 176.402 264.881 176.227C265.191 176.053 265.347 175.75 265.347 175.318V175.227C265.347 174.106 265.04 173.235 264.426 172.614C263.82 171.992 262.9 171.682 261.665 171.682C260.384 171.682 259.381 171.962 258.653 172.523C257.926 173.083 257.415 173.682 257.119 174.318L254.574 173.409C255.028 172.348 255.634 171.523 256.392 170.932C257.157 170.333 257.991 169.917 258.892 169.682C259.801 169.439 260.695 169.318 261.574 169.318C262.134 169.318 262.778 169.386 263.506 169.523C264.241 169.652 264.949 169.92 265.631 170.33C266.32 170.739 266.892 171.356 267.347 172.182C267.801 173.008 268.028 174.114 268.028 175.5V187H265.347V184.636H265.21C265.028 185.015 264.725 185.42 264.301 185.852C263.877 186.284 263.313 186.652 262.608 186.955C261.903 187.258 261.044 187.409 260.028 187.409ZM260.438 185C261.498 185 262.392 184.792 263.119 184.375C263.854 183.958 264.407 183.42 264.778 182.761C265.157 182.102 265.347 181.409 265.347 180.682V178.227C265.233 178.364 264.983 178.489 264.597 178.602C264.218 178.708 263.778 178.803 263.278 178.886C262.786 178.962 262.305 179.03 261.835 179.091C261.373 179.144 260.998 179.189 260.71 179.227C260.013 179.318 259.362 179.466 258.756 179.67C258.157 179.867 257.672 180.167 257.301 180.568C256.938 180.962 256.756 181.5 256.756 182.182C256.756 183.114 257.1 183.818 257.79 184.295C258.487 184.765 259.369 185 260.438 185ZM272.923 187V169.545H275.605V187H272.923ZM274.287 166.636C273.764 166.636 273.313 166.458 272.935 166.102C272.563 165.746 272.378 165.318 272.378 164.818C272.378 164.318 272.563 163.89 272.935 163.534C273.313 163.178 273.764 163 274.287 163C274.81 163 275.257 163.178 275.628 163.534C276.007 163.89 276.196 164.318 276.196 164.818C276.196 165.318 276.007 165.746 275.628 166.102C275.257 166.458 274.81 166.636 274.287 166.636ZM283.199 163.727V187H280.517V163.727H283.199ZM297.111 187V169.545H299.793V187H297.111ZM298.474 166.636C297.952 166.636 297.501 166.458 297.122 166.102C296.751 165.746 296.565 165.318 296.565 164.818C296.565 164.318 296.751 163.89 297.122 163.534C297.501 163.178 297.952 163 298.474 163C298.997 163 299.444 163.178 299.815 163.534C300.194 163.89 300.384 164.318 300.384 164.818C300.384 165.318 300.194 165.746 299.815 166.102C299.444 166.458 298.997 166.636 298.474 166.636ZM307.386 176.5V187H304.705V169.545H307.295V172.273H307.523C307.932 171.386 308.553 170.674 309.386 170.136C310.22 169.591 311.295 169.318 312.614 169.318C313.795 169.318 314.83 169.561 315.716 170.045C316.602 170.523 317.292 171.25 317.784 172.227C318.277 173.197 318.523 174.424 318.523 175.909V187H315.841V176.091C315.841 174.72 315.485 173.652 314.773 172.886C314.061 172.114 313.083 171.727 311.841 171.727C310.985 171.727 310.22 171.913 309.545 172.284C308.879 172.655 308.352 173.197 307.966 173.909C307.58 174.621 307.386 175.485 307.386 176.5ZM323.787 187V163.727H326.469V172.318H326.696C326.893 172.015 327.166 171.629 327.514 171.159C327.87 170.682 328.378 170.258 329.037 169.886C329.704 169.508 330.605 169.318 331.741 169.318C333.211 169.318 334.507 169.686 335.628 170.42C336.749 171.155 337.624 172.197 338.253 173.545C338.882 174.894 339.196 176.485 339.196 178.318C339.196 180.167 338.882 181.769 338.253 183.125C337.624 184.473 336.753 185.519 335.639 186.261C334.526 186.996 333.241 187.364 331.787 187.364C330.666 187.364 329.768 187.178 329.094 186.807C328.42 186.428 327.901 186 327.537 185.523C327.173 185.038 326.893 184.636 326.696 184.318H326.378V187H323.787ZM326.423 178.273C326.423 179.591 326.616 180.754 327.003 181.761C327.389 182.761 327.954 183.545 328.696 184.114C329.438 184.674 330.348 184.955 331.423 184.955C332.545 184.955 333.48 184.659 334.23 184.068C334.988 183.47 335.556 182.667 335.935 181.659C336.321 180.644 336.514 179.515 336.514 178.273C336.514 177.045 336.325 175.939 335.946 174.955C335.575 173.962 335.01 173.178 334.253 172.602C333.503 172.019 332.56 171.727 331.423 171.727C330.332 171.727 329.416 172.004 328.673 172.557C327.931 173.102 327.37 173.867 326.991 174.852C326.613 175.83 326.423 176.97 326.423 178.273ZM350.389 187.364C348.813 187.364 347.431 186.989 346.241 186.239C345.06 185.489 344.135 184.439 343.469 183.091C342.81 181.742 342.48 180.167 342.48 178.364C342.48 176.545 342.81 174.958 343.469 173.602C344.135 172.246 345.06 171.193 346.241 170.443C347.431 169.693 348.813 169.318 350.389 169.318C351.965 169.318 353.344 169.693 354.526 170.443C355.715 171.193 356.639 172.246 357.298 173.602C357.965 174.958 358.298 176.545 358.298 178.364C358.298 180.167 357.965 181.742 357.298 183.091C356.639 184.439 355.715 185.489 354.526 186.239C353.344 186.989 351.965 187.364 350.389 187.364ZM350.389 184.955C351.586 184.955 352.571 184.648 353.344 184.034C354.116 183.42 354.688 182.614 355.06 181.614C355.431 180.614 355.616 179.53 355.616 178.364C355.616 177.197 355.431 176.11 355.06 175.102C354.688 174.095 354.116 173.28 353.344 172.659C352.571 172.038 351.586 171.727 350.389 171.727C349.192 171.727 348.207 172.038 347.435 172.659C346.662 173.28 346.09 174.095 345.719 175.102C345.348 176.11 345.162 177.197 345.162 178.364C345.162 179.53 345.348 180.614 345.719 181.614C346.09 182.614 346.662 183.42 347.435 184.034C348.207 184.648 349.192 184.955 350.389 184.955ZM363.673 169.545L367.855 176.682L372.037 169.545H375.128L369.491 178.273L375.128 187H372.037L367.855 180.227L363.673 187H360.582L366.128 178.273L360.582 169.545H363.673ZM395.727 169.545V171.818H386.318V169.545H395.727ZM389.136 187V167.136C389.136 166.136 389.371 165.303 389.841 164.636C390.311 163.97 390.92 163.47 391.67 163.136C392.42 162.803 393.212 162.636 394.045 162.636C394.705 162.636 395.242 162.689 395.659 162.795C396.076 162.902 396.386 163 396.591 163.091L395.818 165.409C395.682 165.364 395.492 165.307 395.25 165.239C395.015 165.17 394.705 165.136 394.318 165.136C393.432 165.136 392.792 165.36 392.398 165.807C392.011 166.254 391.818 166.909 391.818 167.773V187H389.136ZM405.858 187.364C404.282 187.364 402.9 186.989 401.71 186.239C400.528 185.489 399.604 184.439 398.938 183.091C398.278 181.742 397.949 180.167 397.949 178.364C397.949 176.545 398.278 174.958 398.938 173.602C399.604 172.246 400.528 171.193 401.71 170.443C402.9 169.693 404.282 169.318 405.858 169.318C407.434 169.318 408.813 169.693 409.994 170.443C411.184 171.193 412.108 172.246 412.767 173.602C413.434 174.958 413.767 176.545 413.767 178.364C413.767 180.167 413.434 181.742 412.767 183.091C412.108 184.439 411.184 185.489 409.994 186.239C408.813 186.989 407.434 187.364 405.858 187.364ZM405.858 184.955C407.055 184.955 408.04 184.648 408.812 184.034C409.585 183.42 410.157 182.614 410.528 181.614C410.9 180.614 411.085 179.53 411.085 178.364C411.085 177.197 410.9 176.11 410.528 175.102C410.157 174.095 409.585 173.28 408.812 172.659C408.04 172.038 407.055 171.727 405.858 171.727C404.661 171.727 403.676 172.038 402.903 172.659C402.131 173.28 401.559 174.095 401.188 175.102C400.816 176.11 400.631 177.197 400.631 178.364C400.631 179.53 400.816 180.614 401.188 181.614C401.559 182.614 402.131 183.42 402.903 184.034C403.676 184.648 404.661 184.955 405.858 184.955ZM417.861 187V169.545H420.452V172.182H420.634C420.952 171.318 421.527 170.617 422.361 170.08C423.194 169.542 424.134 169.273 425.179 169.273C425.376 169.273 425.622 169.277 425.918 169.284C426.213 169.292 426.437 169.303 426.588 169.318V172.045C426.497 172.023 426.289 171.989 425.963 171.943C425.645 171.89 425.308 171.864 424.952 171.864C424.103 171.864 423.346 172.042 422.679 172.398C422.02 172.746 421.497 173.231 421.111 173.852C420.732 174.466 420.543 175.167 420.543 175.955V187H417.861ZM443.903 187.409C442.797 187.409 441.794 187.201 440.892 186.784C439.991 186.36 439.275 185.75 438.744 184.955C438.214 184.152 437.949 183.182 437.949 182.045C437.949 181.045 438.146 180.235 438.54 179.614C438.934 178.985 439.46 178.492 440.119 178.136C440.778 177.78 441.506 177.515 442.301 177.341C443.104 177.159 443.911 177.015 444.722 176.909C445.782 176.773 446.642 176.67 447.301 176.602C447.968 176.527 448.453 176.402 448.756 176.227C449.066 176.053 449.222 175.75 449.222 175.318V175.227C449.222 174.106 448.915 173.235 448.301 172.614C447.695 171.992 446.775 171.682 445.54 171.682C444.259 171.682 443.256 171.962 442.528 172.523C441.801 173.083 441.29 173.682 440.994 174.318L438.449 173.409C438.903 172.348 439.509 171.523 440.267 170.932C441.032 170.333 441.866 169.917 442.767 169.682C443.676 169.439 444.57 169.318 445.449 169.318C446.009 169.318 446.653 169.386 447.381 169.523C448.116 169.652 448.824 169.92 449.506 170.33C450.195 170.739 450.767 171.356 451.222 172.182C451.676 173.008 451.903 174.114 451.903 175.5V187H449.222V184.636H449.085C448.903 185.015 448.6 185.42 448.176 185.852C447.752 186.284 447.188 186.652 446.483 186.955C445.778 187.258 444.919 187.409 443.903 187.409ZM444.312 185C445.373 185 446.267 184.792 446.994 184.375C447.729 183.958 448.282 183.42 448.653 182.761C449.032 182.102 449.222 181.409 449.222 180.682V178.227C449.108 178.364 448.858 178.489 448.472 178.602C448.093 178.708 447.653 178.803 447.153 178.886C446.661 178.962 446.18 179.03 445.71 179.091C445.248 179.144 444.873 179.189 444.585 179.227C443.888 179.318 443.237 179.466 442.631 179.67C442.032 179.867 441.547 180.167 441.176 180.568C440.813 180.962 440.631 181.5 440.631 182.182C440.631 183.114 440.975 183.818 441.665 184.295C442.362 184.765 443.244 185 444.312 185ZM456.798 187V169.545H459.48V187H456.798ZM458.162 166.636C457.639 166.636 457.188 166.458 456.81 166.102C456.438 165.746 456.253 165.318 456.253 164.818C456.253 164.318 456.438 163.89 456.81 163.534C457.188 163.178 457.639 163 458.162 163C458.685 163 459.132 163.178 459.503 163.534C459.882 163.89 460.071 164.318 460.071 164.818C460.071 165.318 459.882 165.746 459.503 166.102C459.132 166.458 458.685 166.636 458.162 166.636ZM478.528 187.409C477.422 187.409 476.419 187.201 475.517 186.784C474.616 186.36 473.9 185.75 473.369 184.955C472.839 184.152 472.574 183.182 472.574 182.045C472.574 181.045 472.771 180.235 473.165 179.614C473.559 178.985 474.085 178.492 474.744 178.136C475.403 177.78 476.131 177.515 476.926 177.341C477.729 177.159 478.536 177.015 479.347 176.909C480.407 176.773 481.267 176.67 481.926 176.602C482.593 176.527 483.078 176.402 483.381 176.227C483.691 176.053 483.847 175.75 483.847 175.318V175.227C483.847 174.106 483.54 173.235 482.926 172.614C482.32 171.992 481.4 171.682 480.165 171.682C478.884 171.682 477.881 171.962 477.153 172.523C476.426 173.083 475.915 173.682 475.619 174.318L473.074 173.409C473.528 172.348 474.134 171.523 474.892 170.932C475.657 170.333 476.491 169.917 477.392 169.682C478.301 169.439 479.195 169.318 480.074 169.318C480.634 169.318 481.278 169.386 482.006 169.523C482.741 169.652 483.449 169.92 484.131 170.33C484.82 170.739 485.392 171.356 485.847 172.182C486.301 173.008 486.528 174.114 486.528 175.5V187H483.847V184.636H483.71C483.528 185.015 483.225 185.42 482.801 185.852C482.377 186.284 481.813 186.652 481.108 186.955C480.403 187.258 479.544 187.409 478.528 187.409ZM478.938 185C479.998 185 480.892 184.792 481.619 184.375C482.354 183.958 482.907 183.42 483.278 182.761C483.657 182.102 483.847 181.409 483.847 180.682V178.227C483.733 178.364 483.483 178.489 483.097 178.602C482.718 178.708 482.278 178.803 481.778 178.886C481.286 178.962 480.805 179.03 480.335 179.091C479.873 179.144 479.498 179.189 479.21 179.227C478.513 179.318 477.862 179.466 477.256 179.67C476.657 179.867 476.172 180.167 475.801 180.568C475.438 180.962 475.256 181.5 475.256 182.182C475.256 183.114 475.6 183.818 476.29 184.295C476.987 184.765 477.869 185 478.938 185ZM498.469 193.909C497.173 193.909 496.06 193.742 495.128 193.409C494.196 193.083 493.42 192.652 492.798 192.114C492.185 191.583 491.696 191.015 491.332 190.409L493.469 188.909C493.711 189.227 494.018 189.591 494.389 190C494.76 190.417 495.268 190.777 495.912 191.08C496.563 191.39 497.416 191.545 498.469 191.545C499.878 191.545 501.041 191.205 501.957 190.523C502.874 189.841 503.332 188.773 503.332 187.318V183.773H503.105C502.908 184.091 502.628 184.485 502.264 184.955C501.908 185.417 501.393 185.83 500.719 186.193C500.052 186.549 499.151 186.727 498.014 186.727C496.605 186.727 495.34 186.394 494.219 185.727C493.105 185.061 492.223 184.091 491.571 182.818C490.927 181.545 490.605 180 490.605 178.182C490.605 176.394 490.92 174.837 491.548 173.511C492.177 172.178 493.052 171.148 494.173 170.42C495.295 169.686 496.59 169.318 498.06 169.318C499.196 169.318 500.098 169.508 500.764 169.886C501.438 170.258 501.954 170.682 502.31 171.159C502.673 171.629 502.954 172.015 503.151 172.318H503.423V169.545H506.014V187.5C506.014 189 505.673 190.22 504.991 191.159C504.317 192.106 503.408 192.799 502.264 193.239C501.128 193.686 499.863 193.909 498.469 193.909ZM498.378 184.318C499.454 184.318 500.363 184.072 501.105 183.58C501.848 183.087 502.412 182.379 502.798 181.455C503.185 180.53 503.378 179.424 503.378 178.136C503.378 176.879 503.188 175.769 502.81 174.807C502.431 173.845 501.87 173.091 501.128 172.545C500.385 172 499.469 171.727 498.378 171.727C497.241 171.727 496.295 172.015 495.537 172.591C494.787 173.167 494.223 173.939 493.844 174.909C493.473 175.879 493.287 176.955 493.287 178.136C493.287 179.348 493.476 180.42 493.855 181.352C494.241 182.277 494.81 183.004 495.56 183.534C496.317 184.057 497.257 184.318 498.378 184.318ZM518.241 187.364C516.56 187.364 515.109 186.992 513.889 186.25C512.677 185.5 511.741 184.455 511.082 183.114C510.431 181.765 510.105 180.197 510.105 178.409C510.105 176.621 510.431 175.045 511.082 173.682C511.741 172.311 512.658 171.242 513.832 170.477C515.014 169.705 516.393 169.318 517.969 169.318C518.878 169.318 519.776 169.47 520.662 169.773C521.548 170.076 522.355 170.568 523.082 171.25C523.81 171.924 524.389 172.818 524.821 173.932C525.253 175.045 525.469 176.417 525.469 178.045V179.182H512.014V176.864H522.741C522.741 175.879 522.545 175 522.151 174.227C521.764 173.455 521.211 172.845 520.491 172.398C519.779 171.951 518.938 171.727 517.969 171.727C516.901 171.727 515.976 171.992 515.196 172.523C514.423 173.045 513.829 173.727 513.412 174.568C512.995 175.409 512.787 176.311 512.787 177.273V178.818C512.787 180.136 513.014 181.254 513.469 182.17C513.931 183.08 514.571 183.773 515.389 184.25C516.207 184.72 517.158 184.955 518.241 184.955C518.946 184.955 519.582 184.856 520.151 184.659C520.726 184.455 521.223 184.152 521.639 183.75C522.056 183.341 522.378 182.833 522.605 182.227L525.196 182.955C524.923 183.833 524.465 184.606 523.821 185.273C523.177 185.932 522.382 186.447 521.435 186.818C520.488 187.182 519.423 187.364 518.241 187.364ZM532.23 176.5V187H529.548V169.545H532.139V172.273H532.366C532.776 171.386 533.397 170.674 534.23 170.136C535.063 169.591 536.139 169.318 537.457 169.318C538.639 169.318 539.673 169.561 540.56 170.045C541.446 170.523 542.135 171.25 542.628 172.227C543.12 173.197 543.366 174.424 543.366 175.909V187H540.685V176.091C540.685 174.72 540.329 173.652 539.616 172.886C538.904 172.114 537.927 171.727 536.685 171.727C535.829 171.727 535.063 171.913 534.389 172.284C533.723 172.655 533.196 173.197 532.81 173.909C532.423 174.621 532.23 175.485 532.23 176.5ZM555.858 169.545V171.818H546.812V169.545H555.858ZM549.449 165.364H552.131V182C552.131 182.758 552.241 183.326 552.46 183.705C552.688 184.076 552.975 184.326 553.324 184.455C553.68 184.576 554.055 184.636 554.449 184.636C554.744 184.636 554.987 184.621 555.176 184.591C555.366 184.553 555.517 184.523 555.631 184.5L556.176 186.909C555.994 186.977 555.741 187.045 555.415 187.114C555.089 187.189 554.676 187.227 554.176 187.227C553.419 187.227 552.676 187.064 551.949 186.739C551.229 186.413 550.631 185.917 550.153 185.25C549.684 184.583 549.449 183.742 549.449 182.727V165.364ZM571.943 173.455L569.534 174.136C569.383 173.735 569.159 173.345 568.864 172.966C568.576 172.58 568.182 172.261 567.682 172.011C567.182 171.761 566.542 171.636 565.761 171.636C564.693 171.636 563.803 171.883 563.091 172.375C562.386 172.86 562.034 173.477 562.034 174.227C562.034 174.894 562.277 175.42 562.761 175.807C563.246 176.193 564.004 176.515 565.034 176.773L567.625 177.409C569.186 177.788 570.348 178.367 571.114 179.148C571.879 179.92 572.261 180.917 572.261 182.136C572.261 183.136 571.973 184.03 571.398 184.818C570.83 185.606 570.034 186.227 569.011 186.682C567.989 187.136 566.799 187.364 565.443 187.364C563.663 187.364 562.189 186.977 561.023 186.205C559.856 185.432 559.117 184.303 558.807 182.818L561.352 182.182C561.595 183.121 562.053 183.826 562.727 184.295C563.409 184.765 564.299 185 565.398 185C566.648 185 567.64 184.735 568.375 184.205C569.117 183.667 569.489 183.023 569.489 182.273C569.489 181.667 569.277 181.159 568.852 180.75C568.428 180.333 567.777 180.023 566.898 179.818L563.989 179.136C562.39 178.758 561.216 178.17 560.466 177.375C559.723 176.572 559.352 175.568 559.352 174.364C559.352 173.379 559.629 172.508 560.182 171.75C560.742 170.992 561.504 170.398 562.466 169.966C563.436 169.534 564.534 169.318 565.761 169.318C567.489 169.318 568.845 169.697 569.83 170.455C570.822 171.212 571.527 172.212 571.943 173.455ZM578.253 187.182C577.692 187.182 577.211 186.981 576.81 186.58C576.408 186.178 576.207 185.697 576.207 185.136C576.207 184.576 576.408 184.095 576.81 183.693C577.211 183.292 577.692 183.091 578.253 183.091C578.813 183.091 579.295 183.292 579.696 183.693C580.098 184.095 580.298 184.576 580.298 185.136C580.298 185.508 580.204 185.848 580.014 186.159C579.832 186.47 579.586 186.72 579.276 186.909C578.973 187.091 578.632 187.182 578.253 187.182Z" fill="black"/>
<defs>
<filter id="filter0_i_1720_15" x="121.537" y="64" width="64.4629" height="166.157" filterUnits="userSpaceOnUse" color-interpolation-filters="sRGB">
<feFlood flood-opacity="0" result="BackgroundImageFix"/>
<feBlend mode="normal" in="SourceGraphic" in2="BackgroundImageFix" result="shape"/>
<feColorMatrix in="SourceAlpha" type="matrix" values="0 0 0 0 0 0 0 0 0 0 0 0 0 0 0 0 0 0 127 0" result="hardAlpha"/>
<feOffset dy="5"/>
<feGaussianBlur stdDeviation="9.5"/>
<feComposite in2="hardAlpha" operator="arithmetic" k2="-1" k3="1"/>
<feColorMatrix type="matrix" values="0 0 0 0 1 0 0 0 0 1 0 0 0 0 1 0 0 0 0.6 0"/>
<feBlend mode="normal" in2="shape" result="effect1_innerShadow_1720_15"/>
</filter>
<filter id="filter1_i_1720_15" x="66" y="195.405" width="87.7686" height="96.3423" filterUnits="userSpaceOnUse" color-interpolation-filters="sRGB">
<feFlood flood-opacity="0" result="BackgroundImageFix"/>
<feBlend mode="normal" in="SourceGraphic" in2="BackgroundImageFix" result="shape"/>
<feColorMatrix in="SourceAlpha" type="matrix" values="0 0 0 0 0 0 0 0 0 0 0 0 0 0 0 0 0 0 127 0" result="hardAlpha"/>
<feOffset dy="5"/>
<feGaussianBlur stdDeviation="7"/>
<feComposite in2="hardAlpha" operator="arithmetic" k2="-1" k3="1"/>
<feColorMatrix type="matrix" values="0 0 0 0 1 0 0 0 0 1 0 0 0 0 1 0 0 0 0.84 0"/>
<feBlend mode="normal" in2="shape" result="effect1_innerShadow_1720_15"/>
</filter>
<linearGradient id="paint0_linear_1720_15" x1="153.769" y1="64" x2="153.769" y2="225.157" gradientUnits="userSpaceOnUse">
<stop stop-color="#0070A2"/>
<stop offset="0.504808" stop-color="#00A6F1"/>
<stop offset="1" stop-color="#9EE1FF"/>
</linearGradient>
<linearGradient id="paint1_linear_1720_15" x1="153.769" y1="64" x2="153.769" y2="225.157" gradientUnits="userSpaceOnUse">
<stop stop-color="#0D8DC7"/>
<stop offset="0.5" stop-color="#2CBEFF"/>
<stop offset="1" stop-color="#C0EBFF"/>
</linearGradient>
<linearGradient id="paint2_linear_1720_15" x1="153.769" y1="64" x2="153.769" y2="225.157" gradientUnits="userSpaceOnUse">
<stop stop-color="#0EA5E9"/>
<stop offset="1" stop-color="#CBEFFF"/>
</linearGradient>
<linearGradient id="paint3_linear_1720_15" x1="109.884" y1="195.405" x2="109.884" y2="286.747" gradientUnits="userSpaceOnUse">
<stop stop-color="#00A2EB"/>
<stop offset="1" stop-color="#50C9FF"/>
</linearGradient>
<linearGradient id="paint4_linear_1720_15" x1="109.884" y1="199.868" x2="109.884" y2="288.628" gradientUnits="userSpaceOnUse">
<stop stop-color="#009FE7"/>
<stop offset="1" stop-color="#9CE0FF"/>
</linearGradient>
<linearGradient id="paint5_linear_1720_15" x1="109.884" y1="195.405" x2="109.884" y2="286.747" gradientUnits="userSpaceOnUse">
<stop stop-color="#2CBDFF"/>
<stop offset="0.5" stop-color="#85D9FF"/>
<stop offset="1" stop-color="#00ABF8"/>
</linearGradient>
</defs>
</svg>
